<svg width="48" height="40" viewBox="0 0 48 40" fill="none" xmlns="http://www.w3.org/2000/svg">
<g id="Frame" clip-path="url(#clip0_55_8)">
<path id="Vector" d="M19.5844 22.5812V40H0V26.2455C0 18.8087 1.08802 13.4116 3.24594 10.0903C6.09294 5.63177 10.5901 2.27437 16.7374 0L21.1983 5.83033C17.4809 7.11191 14.7427 9.00722 12.9838 11.5343C11.2248 14.0614 10.2456 17.7437 10.0461 22.5812H19.5844Z" fill="white"/>
<path id="Vector_2" d="M46.368 22.5812V40H26.8017V26.2455C26.8017 18.8086 27.8897 13.4115 30.0476 10.0722C32.8946 5.63175 37.3918 2.27435 43.5391 -0.0180664L48 5.81226C44.2826 7.09385 41.5444 8.98915 39.7854 11.5162C38.0265 14.0433 37.0472 17.7256 36.8478 22.5632H46.3861L46.368 22.5812Z" fill="white"/>
</g>
<defs>
<clipPath id="clip0_55_8">
<rect width="48" height="40" fill="white"/>
</clipPath>
</defs>
</svg>
